<?xml version="1.0" standalone="no"?>
<!DOCTYPE svg PUBLIC "-//W3C//DTD SVG 20010904//EN"
 "http://www.w3.org/TR/2001/REC-SVG-20010904/DTD/svg10.dtd">
<svg version="1.0" xmlns="http://www.w3.org/2000/svg"
 width="260.000000pt" height="260.000000pt" viewBox="0 0 260.000000 260.000000"
 preserveAspectRatio="xMidYMid meet">
<metadata>
Created by potrace 1.11, written by Peter Selinger 2001-2013
</metadata>
<g transform="translate(0.000000,260.000000) scale(0.100000,-0.100000)"
fill="#000000" stroke="none">
<path d="M0 2190 c0 -225 2 -410 4 -410 5 0 2529 796 2566 809 15 6 -497 10
-1272 10 l-1298 1 0 -410z"/>
<path d="M2280 2356 l-165 -52 -3 -748 c-2 -620 0 -747 11 -743 8 3 86 28 175
56 l162 52 0 744 c0 410 -3 745 -7 744 -5 0 -82 -24 -173 -53z"/>
<path d="M1303 2047 c-119 -37 -163 -55 -163 -67 0 -8 24 -100 54 -205 29
-104 64 -234 76 -288 13 -54 27 -94 31 -90 5 5 20 63 33 128 23 112 121 535
131 563 2 6 3 12 2 11 -1 0 -75 -23 -164 -52z"/>
<path d="M1707 1923 c-3 -5 -69 -245 -147 -534 l-143 -526 -120 -37 c-66 -21
-123 -34 -127 -29 -15 17 -122 338 -195 588 -42 143 -79 267 -82 275 -14 39
-13 -26 6 -237 28 -302 51 -687 51 -845 0 -83 4 -128 11 -128 12 0 634 196
667 210 22 9 22 12 22 202 0 245 41 887 65 1036 6 30 2 41 -8 25z"/>
<path d="M308 1734 l-168 -55 0 -744 c0 -410 1 -745 3 -745 1 0 79 24 172 53
l170 53 3 747 c1 411 -1 747 -5 746 -5 -1 -83 -26 -175 -55z"/>
<path d="M1305 414 c-704 -222 -1284 -406 -1290 -408 -5 -3 574 -5 1288 -5
l1297 -1 0 410 c0 226 -3 410 -7 410 -5 -1 -584 -183 -1288 -406z"/>
</g>
</svg>
